<svg width="637" height="204" viewBox="0 0 637 204" fill="none" xmlns="http://www.w3.org/2000/svg">
  <path d="M64 67H46.118C45.7393 67 45.3945 66.7843 45.2157 66.4504C42.7338 61.8168 39.2386 59.5 32.5 59.5C21.5 59.5 18.5 69.5 18.5 80.5C18.5 93.5 23 101.5 32.5 101.5C39.7283 101.5 42.7768 99.6423 45.2262 94.584C45.3971 94.231 45.7518 94 46.1439 94H64C61 110 49.5 118 32.5 118C18.5 118 0 108.5 0 80.5C0 52.5 14.5 43 32.5 43C55.7 43 62.6667 59.3333 64 67Z" fill="#000000"/>
  <path d="M86 45H69.5C68.9477 45 68.5 45.4477 68.5 46V94C68.5 102.5 75.5 117.5 99 117.5C123.4 117.5 130 102.5 130 94V46C130 45.4477 129.553 45 129.001 45H117.5C115.5 45 111.5 48 111.5 51.5V67V94C111.5 97.5 107 102.5 99 102.5C91 102.5 87 97.5 87 94V46C87 45.4477 86.5523 45 86 45Z" fill="#000000"/>
  <path d="M198 67H180.118C179.739 67 179.395 66.7843 179.216 66.4504C176.734 61.8168 173.239 59.5 166.5 59.5C155.5 59.5 152.5 69.5 152.5 80.5C152.5 93.5 157 101.5 166.5 101.5C173.728 101.5 176.777 99.6423 179.226 94.584C179.397 94.231 179.752 94 180.144 94H198C195 110 183.5 118 166.5 118C152.5 118 134 108.5 134 80.5C134 52.5 148.5 43 166.5 43C189.7 43 196.667 59.3333 198 67Z" fill="#000000"/>
  <path d="M223 116H206C205.448 116 205 115.552 205 115V25C205 24.4477 205.446 24 205.998 24H216.5C220.9 24 224 29 224 31.5V69.2381C224 69.691 224.554 69.9105 224.864 69.5805L247.204 45.8151C247.393 45.614 247.656 45.5 247.932 45.5H266.242C267.11 45.5 267.566 46.5294 266.983 47.172L244.502 71.9465C244.204 72.2747 244.156 72.756 244.383 73.137C246.882 77.3442 251.941 86.6353 256.5 94C263 104.5 268.5 112.25 273 116L273.129 116.108C279.179 121.15 291.643 131.538 311.5 132C333 132.5 338 131.5 355 129C372 126.5 399 120.5 426.5 120.5C453.042 120.5 459.5 123 471 128C468.6 134 465.833 133.667 464.5 133C461.333 131.167 449.3 129 426.5 129C403.7 129 369.333 133.833 355 137C343.667 138.667 319.1 142 311.5 142C302 142 276 143.5 260 129C244 114.5 236.471 96.5 235 94C233 91 231 85.5 227.5 85.5C224 85.5 224 87.5 224 88.5V115C224 115.552 223.552 116 223 116Z" fill="#000000"/>
  <path fill-rule="evenodd" clip-rule="evenodd" d="M297.5 43.5C310.5 43.5 331 49 331 81C331 110 313 117.5 297.5 117.5C284 117.5 265.5 109.8 265.5 81C265.5 49 284 43.5 297.5 43.5ZM283.5 81C283.5 72.5 285.5 59 297.5 59C312.5 59 312.5 79 312.5 81C312.5 83 312.5 102.5 298 102.5C286.4 102.5 283.5 88 283.5 81Z" fill="#000000"/>
  <path fill-rule="evenodd" clip-rule="evenodd" d="M367 43.5C380 43.5 400.5 49 400.5 81C400.5 110 382.5 117.5 367 117.5C353.5 117.5 335 109.8 335 81C335 49 353.5 43.5 367 43.5ZM353 81C353 72.5 355 59 367 59C382 59 382 79 382 81C382 83 382 102.5 367.5 102.5C355.9 102.5 353 88 353 81Z" fill="#000000"/>
  <path d="M405.996 56C403.196 57.2 402.663 60.6667 402.496 62C403.296 58.8 406.663 57.1667 408.496 57C413.996 56.6667 425.596 57 427.996 57C428.873 57 429.494 54.18 429.184 52.5869C429.111 52.2151 428.755 52.0034 428.385 51.9206C427.568 51.7375 426.231 51.1323 426.321 49.1315C426.348 48.5266 425.962 47.9237 425.359 47.8753C424.209 47.7829 422.923 47.8705 421.103 48.9366C421.033 48.9779 420.972 49.0262 420.91 49.0804C419.151 50.6382 409.435 54.526 405.996 56Z" fill="#000000"/>
  <path fill-rule="evenodd" clip-rule="evenodd" d="M425.319 48.3737C424.256 48.2883 423.075 48.3607 421.356 49.368C421.324 49.3866 421.29 49.4119 421.242 49.4547C420.745 49.8946 419.748 50.4566 418.545 51.0586C417.322 51.6708 415.826 52.3528 414.284 53.0295C412.273 53.9117 410.163 54.794 408.466 55.5032C407.566 55.8793 406.783 56.2067 406.193 56.4596C405.132 56.9145 404.422 57.7426 403.942 58.6713C404.222 58.4071 404.518 58.1683 404.82 57.9545C406.053 57.0808 407.436 56.5943 408.451 56.5021L408.458 56.5014L408.466 56.5009C412.685 56.2452 420.484 56.3799 424.981 56.4576C426.352 56.4812 427.415 56.4996 427.977 56.5C427.992 56.4921 428.06 56.4512 428.169 56.2739C428.309 56.0444 428.443 55.6958 428.55 55.2696C428.764 54.4141 428.83 53.3876 428.693 52.6825C428.685 52.6407 428.661 52.5948 428.593 52.5434C428.52 52.4881 428.411 52.4387 428.276 52.4085C427.818 52.306 427.177 52.0783 426.66 51.5616C426.126 51.0289 425.771 50.2364 425.821 49.1091C425.841 48.6803 425.57 48.3938 425.319 48.3737ZM420.85 48.5051C422.771 47.3803 424.161 47.2775 425.399 47.3769C426.355 47.4536 426.855 48.3729 426.82 49.1539C426.781 50.0274 427.05 50.5379 427.366 50.8538C427.699 51.1857 428.135 51.3522 428.495 51.4327C428.929 51.5301 429.544 51.8216 429.674 52.4913C429.847 53.3793 429.758 54.5593 429.52 55.5121C429.401 55.9901 429.235 56.4461 429.022 56.7951C428.829 57.1115 428.496 57.5 427.996 57.5C427.414 57.5 426.313 57.481 424.898 57.4566C420.391 57.3789 412.708 57.2464 408.534 57.4986C407.716 57.5748 406.502 57.9882 405.398 58.7705C404.296 59.5508 403.345 60.6672 402.981 62.1213L402 61.938C402.085 61.2614 402.266 60.0041 402.799 58.754C403.332 57.5023 404.239 56.2092 405.799 55.5404C406.405 55.2808 407.197 54.9499 408.102 54.5716C409.792 53.8653 411.876 52.994 413.882 52.1138C415.419 51.4396 416.897 50.7654 418.098 50.1644C419.319 49.5532 420.196 49.045 420.579 48.706C420.653 48.6405 420.741 48.5692 420.85 48.5051Z" fill="#000000"/>
  <path d="M428.896 56.5H424.896C427.696 56.5 427.729 60.5 427.396 62.5C428.396 62 430.396 60.6 430.396 59C430.396 57.4 429.396 56.6667 428.896 56.5Z" fill="#000000"/>
  <path d="M422.896 67C419.396 68.5 416.491 74.3821 415.991 77.7154C417.491 75.5487 422.405 71.1637 427.396 69.5C431.867 68.0097 434.902 68 437.402 68.5C439.402 68.9 441.096 69.5 441.896 73.5C442.896 78.5 444.396 80.5 444.396 80.5C446.729 84 452.404 91.9402 457.204 93.9402C463.204 96.4402 474.396 103.5 491.896 103.5V98.5C488.063 98 478.576 96.9195 473.376 94.1195C466.876 90.6195 459.524 84.535 457.024 82.035C458.858 79.8683 462.396 76 462.396 66C462.229 68.3333 460.696 72 455.896 72C449.896 72 445.396 62.5 440.396 62.5C436.396 62.5 430.729 65.1667 428.396 66.5L426.896 63C426.383 65 424.016 66.5 422.896 67Z" fill="#000000"/>
  <path fill-rule="evenodd" clip-rule="evenodd" d="M424.896 57V56H428.977L429.054 56.0257C429.732 56.2514 430.896 57.1578 430.896 59C430.896 60.004 430.277 60.8767 429.621 61.5196C428.952 62.1754 428.157 62.6787 427.62 62.9472L427.453 63.0305L428.637 65.7935C429.851 65.1341 431.642 64.269 433.595 63.5322C435.819 62.6926 438.304 62 440.396 62C441.804 62 443.129 62.6672 444.379 63.5807C445.514 64.4106 446.646 65.4885 447.772 66.5605C447.887 66.6697 448.001 66.7787 448.116 66.8875C449.368 68.0775 450.62 69.2357 451.922 70.0989C453.222 70.9603 454.532 71.5 455.896 71.5C458.103 71.5 459.543 70.4397 460.472 69.0914C461.357 67.8065 461.767 66.2657 461.879 65.1717C461.893 65.0351 461.93 64.901 461.994 64.7796C462.37 64.0683 462.423 64.0637 462.79 64.7883C462.86 64.9268 462.896 65.0818 462.896 65.2371C462.871 70.1681 462.079 73.7421 461.049 76.37C460.108 78.7697 458.104 81.3978 457.204 82.5C459.951 85.1311 467.184 90.7854 473.376 94.1195C475.92 95.4895 479.543 96.6656 482.902 97.5C486.253 98.3327 489.562 98.2565 491.461 98.5042L491.896 98.561L492.396 104H491.896C474.902 104.5 466.907 99.6969 460.472 96.5C458.976 95.7567 457.902 95 456.902 94.5C454.395 93.4553 451.266 90.4706 448.902 87.9011C446.527 85.3213 445.166 82.5553 443.986 80.7863L443.971 80.7652C443.957 80.7455 443.938 80.7178 443.914 80.6816C443.866 80.6094 443.798 80.5038 443.715 80.3629C443.549 80.081 443.322 79.6579 443.064 79.0781C442.549 77.9182 441.913 76.1329 441.406 73.5981C441.017 71.6541 440.426 70.6214 439.761 70.021C439.094 69.4185 437.391 69.4768 436.402 69.2789C433.505 69.2789 431.902 68.9903 427.554 69.9743C425.117 70.7869 422.786 72.0935 420.879 73.4671C418.965 74.8457 417.107 76.9814 416.402 78L415.496 77.6412C415.757 75.9038 416.937 73.0025 418.091 71.0573C419.24 69.1214 420.808 67.3525 422.696 66.542C423.216 66.3092 424.043 65.8351 424.797 65.1841C425.558 64.5263 426.155 63.4219 426.412 62.8757C426.536 62.611 426.937 62.1417 427.014 61.4527C427.117 60.5378 427.082 59.8412 426.836 58.8728C426.69 58.2957 426.465 57.8245 426.155 57.5033C425.859 57.1959 425.462 57 424.896 57ZM426.896 64.2686C426.511 64.916 425.986 65.4784 425.45 65.9409C424.614 66.6635 423.7 67.1887 423.1 67.4565L423.093 67.4596C421.483 68.1498 420.052 69.7132 418.951 71.5677C418.266 72.7222 417.726 73.9619 417.358 75.119C418.153 74.3262 419.155 73.4768 420.295 72.6557C422.265 71.2369 424.684 69.8769 427.238 69.0257C431.811 67.5014 434.899 67.4907 437.494 68.0097C438.505 68.2119 439.548 68.4815 440.431 69.2789C441.317 70.0786 441.975 71.3459 442.386 73.4019C442.879 75.8671 443.494 77.5818 443.978 78.6719C444.22 79.2171 444.43 79.6065 444.577 79.8559C444.65 79.9805 444.708 80.0703 444.746 80.1269C444.765 80.1553 444.779 80.1754 444.787 80.1875L444.796 80.1997L444.797 80.2006L444.804 80.2111L444.812 80.2226C445.966 81.9541 448.001 84.6831 450.339 87.2239C452.691 89.7794 455.103 92.5234 457.396 93.4787C458.563 93.9648 459.767 94.2418 461.295 95C467.668 98.1616 476.902 103 491.396 102.998V98.9369C489.435 98.6627 486.308 98.7524 483.161 97.9705C479.777 97.1299 476.057 95.93 473.402 94.5C466.857 90.9757 459.203 84.9211 456.671 82.3885L456.345 82.0632L456.643 81.712C457.539 80.653 459.124 78.5403 460.118 76.005C460.822 74.2101 461.419 71.9244 461.709 68.9908C461.583 69.2175 461.445 69.4409 461.295 69.6586C460.215 71.227 458.489 72.5 455.896 72.5C454.261 72.5 452.758 71.8522 451.37 70.9324C449.985 70.0143 448.674 68.7975 447.427 67.6125C447.314 67.5051 447.201 67.3979 447.089 67.2913C445.952 66.2088 444.869 65.1772 443.789 64.3881C442.601 63.5203 441.488 63 440.396 63C438.488 63 436.14 63.6407 433.948 64.4678C431.766 65.2911 429.79 66.2795 428.644 66.9341L428.157 67.2123L426.896 64.2686ZM428.804 57H427.043C427.418 57.4636 427.657 58.0381 427.806 58.6272C428.046 59.5757 428.075 60.6411 428.01 61.5507C428.314 61.34 428.633 61.0878 428.921 60.8054C429.515 60.2233 429.896 59.596 429.896 59C429.896 57.7274 429.162 57.1553 428.804 57Z" fill="#000000"/>
  <path d="M430.496 56C431.663 56.1667 435.996 57.2 435.996 60C435.996 62.8 430.959 65.8707 428.625 66.3707L427.62 63.8764C429.12 63.543 432.696 62 433.496 60C433.496 57.6 430.996 56.3333 430.496 56Z" fill="#000000"/>
  <path d="M429.357 51.1857C429.69 49.6857 431.657 47.0857 436.857 46.6857C440.591 46.8413 447.898 46.6192 449.178 44.6365C449.245 44.4675 449.304 44.3163 449.357 44.1857C449.33 44.3452 449.27 44.4953 449.178 44.6365C447.964 47.7009 444.225 57.4477 431.431 56.5C435.597 56.3333 443.757 53.9857 443.357 49.1857C443.357 47.6857 441.544 47.6857 440.357 47.6857C438.357 47.6857 433.357 47.1857 429.357 51.1857Z" fill="#000000"/>
  <path d="M437.857 49.1857C437.857 51.1615 435.523 52.009 434.357 52.1857C432.357 52.6857 429.857 53.1857 429.857 52.1857C429.857 48.6857 437.857 46.7159 437.857 49.1857Z" fill="#000000"/>
  <path fill-rule="evenodd" clip-rule="evenodd" d="M448.791 44.2571C448.827 44.1648 448.861 44.078 448.892 44L449.85 44.2679C449.814 44.483 449.736 44.6817 449.626 44.8629C449.007 46.4227 447.715 49.4786 444.949 52.0329C442.141 54.6262 437.853 57.4839 431.32 57L431.337 56.0018C433.387 55.9198 435.492 55.4762 437.95 54.5C439.18 54.0117 441.163 52.6067 441.874 51.8584C442.573 51.1227 442.945 50.2624 442.858 49.2272L442.857 49.2065V49.1857C442.857 48.9206 442.78 48.7617 442.682 48.6517C442.574 48.5312 442.403 48.4284 442.153 48.3505C441.638 48.19 440.97 48.1857 440.357 48.1857C440.172 48.1857 439.965 48.1819 439.739 48.1777C439.231 48.1682 438.624 48.157 437.95 48.1835C438.208 48.4416 438.357 48.7822 438.357 49.1857C438.357 50.4029 437.629 51.244 436.819 51.7778C436.025 52.3015 435.091 52.5769 434.456 52.6764C433.461 52.9245 432.309 53.1815 431.392 53.2469C430.939 53.2793 430.485 53.2702 430.125 53.1536C429.94 53.0937 429.745 52.9948 429.595 52.8261C429.435 52.6472 429.357 52.4248 429.357 52.1857C429.357 52.0807 429.363 51.9774 429.374 51.8757L428.496 52.7534L428.869 51.0772C429.262 49.3077 431.46 46.5993 436.818 46.1872L436.848 46.1849L436.878 46.1861C438.727 46.2632 441.46 46.2463 443.88 45.9663C445.092 45.8261 446.206 45.6221 447.085 45.3391C447.959 45.0576 448.499 44.7294 448.734 44.4016C448.753 44.3523 448.772 44.304 448.791 44.2571ZM448.023 46.0602C447.82 46.1446 447.608 46.2212 447.391 46.291C446.424 46.6024 445.237 46.8159 443.995 46.9597C442.974 47.0778 441.903 47.1501 440.864 47.189C441.365 47.199 441.946 47.2387 442.451 47.3958C442.803 47.5055 443.158 47.684 443.428 47.9854C443.702 48.2926 443.852 48.6889 443.857 49.1642C443.964 50.5201 443.457 51.6448 442.599 52.5474C442.522 52.6278 442.443 52.7065 442.361 52.7835C443.071 52.3234 443.704 51.8216 444.271 51.2983C446.137 49.575 447.294 47.6014 448.023 46.0602ZM437.44 47.2061C437.241 47.2006 437.049 47.194 436.866 47.1865C434.657 47.3604 433.085 47.9388 431.995 48.6368C433.916 47.6441 435.849 47.3093 437.44 47.2061ZM430.357 52.1705C430.371 52.1784 430.394 52.1898 430.432 52.2022C430.603 52.2575 430.899 52.2796 431.321 52.2495C432.148 52.1904 433.235 51.9507 434.235 51.7006L434.258 51.6949L434.282 51.6913C434.813 51.6109 435.615 51.3744 436.269 50.943C436.918 50.5148 437.357 49.9443 437.357 49.1857C437.357 49.0328 437.304 48.9353 437.2 48.8518C437.077 48.753 436.862 48.6622 436.535 48.6152C435.884 48.5214 434.963 48.627 434.005 48.9245C433.052 49.2204 432.117 49.6897 431.431 50.2738C430.746 50.8568 430.363 51.504 430.357 52.1705Z" fill="#000000"/>
  <path d="M441.996 39.5C432.796 39.9 427.829 46.3333 426.496 49.5L422.496 48C421.996 40.5 429.996 31.5 428.996 33C428.196 34.2 428.329 37.5 428.496 39C430.496 27.5 441.996 19 438.996 22C436.596 24.4 435.996 29.6667 435.996 32C444.396 19.2 454.829 14.6667 458.996 14C450.196 19.2 446.663 27.5 445.996 31C448.37 26.6483 454.852 22.2639 457.896 20.5558C457.931 20.5344 457.965 20.5157 457.996 20.5C457.963 20.5183 457.93 20.5369 457.896 20.5558C456.81 21.2179 453.98 24.5471 453.496 26C453.138 27.0733 452.829 29 452.996 30C454.663 28.6667 458.696 26.1 461.496 26.5C458.996 26.5 456.496 30.5 456.496 33.5C456.496 36.7985 459.163 36.8333 459.996 36.5C460.996 38.5 460.496 40.5 459.996 43C459.631 44.8233 456.341 47.4446 454.975 48.536C454.975 48.6999 454.691 48.9024 454.496 49C454.225 49.1353 454.468 48.941 454.975 48.536C455.496 47.6624 455.496 45.8171 455.496 43C453.996 39.5 453.496 39 441.996 39.5Z" fill="#000000"/>
  <path fill-rule="evenodd" clip-rule="evenodd" d="M436.583 30.2444C444.865 18.463 454.767 14.1702 458.916 13.5063L459.249 14.4305C452.521 18.4065 448.93 24.2251 447.362 28.2086C448.528 26.8504 449.947 25.5531 451.38 24.3974C453.698 22.5275 456.099 20.9909 457.643 20.124C457.685 20.0985 457.728 20.0744 457.771 20.0528L458.238 20.9371L458.148 20.9874C457.931 21.1216 457.589 21.4148 457.172 21.8341C456.759 22.2492 456.299 22.761 455.855 23.2994C455.411 23.8379 454.989 24.3971 454.65 24.9064C454.306 25.4249 454.069 25.8602 453.969 26.1581C453.803 26.6586 453.642 27.377 453.544 28.0951C453.499 28.4232 453.469 28.7398 453.456 29.0274C454.3 28.4252 455.41 27.7271 456.602 27.15C458.188 26.3825 460.011 25.7829 461.566 26.005L461.495 27C460.5 27 459.381 27.8215 458.471 29.1567C457.577 30.4676 456.995 32.1212 456.995 33.5C456.995 34.9904 457.58 35.6312 458.153 35.9133C458.786 36.2248 459.513 36.1544 459.809 36.0358L460.236 35.8649L460.442 36.2764C461.459 38.3102 461.044 40.3523 460.588 42.5921C460.554 42.7596 460.519 42.9282 460.485 43.0981C460.373 43.6597 460.049 44.2355 459.652 44.7766C459.249 45.3256 458.74 45.8793 458.21 46.3993C457.184 47.4066 456.041 48.3229 455.351 48.8741C455.165 49.0609 454.975 49.1911 454.719 49.4472C454.681 49.4662 454.636 49.4875 454.592 49.5038C454.573 49.5111 454.533 49.5252 454.485 49.534C454.461 49.5384 454.416 49.545 454.361 49.542C454.312 49.5393 454.199 49.5264 454.086 49.4431C453.95 49.3423 453.889 49.1939 453.883 49.0609C453.878 48.9516 453.91 48.8694 453.925 48.8349C453.956 48.7637 453.997 48.7143 454.009 48.6999C454.042 48.6601 454.08 48.6245 454.105 48.6015C454.2 48.5151 454.361 48.4688 454.585 48.2068C454.757 47.871 454.871 47.3159 454.931 46.4616C454.993 45.5824 454.995 44.4708 454.995 43.1028C454.635 42.2675 454.355 41.6746 453.984 41.2241C453.619 40.7811 453.148 40.4567 452.358 40.2308C451.547 39.9991 450.412 39.8747 448.736 39.8437C447.065 39.8127 444.891 39.8746 442.017 39.9995C433.061 40.3889 428.236 46.6529 426.956 49.694L426.769 50.1369L422.018 48.355L421.996 48.0333C421.735 44.1216 423.682 39.8834 425.505 36.8664C426.423 35.3464 427.326 34.1095 427.941 33.3434C428.244 32.9658 428.489 32.6865 428.636 32.5456C428.67 32.5128 428.719 32.4679 428.772 32.4318L428.773 32.4309C428.791 32.4186 428.863 32.3698 428.963 32.3472C429.016 32.3353 429.145 32.3149 429.288 32.3813C429.458 32.4598 429.54 32.6063 429.567 32.7214C429.591 32.8187 429.58 32.8986 429.574 32.9325C429.567 32.9731 429.556 33.0058 429.549 33.0261C429.534 33.0667 429.517 33.1014 429.504 33.1244C429.479 33.1727 429.446 33.2252 429.411 33.2774C429.265 33.4958 429.14 33.8506 429.047 34.3281C428.983 34.6563 428.939 35.022 428.91 35.4064C430.408 31.0297 433.034 27.2941 435.241 24.7359C436.632 23.124 437.872 21.9613 438.587 21.3843C438.765 21.2407 438.921 21.1254 439.043 21.0475C439.101 21.0105 439.171 20.9697 439.242 20.9408C439.274 20.9274 439.336 20.9044 439.413 20.896C439.47 20.8897 439.678 20.8759 439.846 21.0494C440.022 21.2308 439.994 21.4477 439.981 21.5137C439.965 21.5942 439.934 21.6568 439.917 21.6886C439.88 21.7584 439.829 21.826 439.783 21.8832C439.686 22.004 439.541 22.1615 439.349 22.3536C438.249 23.4534 437.525 25.2582 437.082 27.1398C436.826 28.2236 436.67 29.3057 436.583 30.2444ZM455.869 47.1619C456.393 46.7219 456.969 46.2159 457.51 45.6856C458.019 45.186 458.486 44.6743 458.846 44.1849C459.211 43.6875 459.435 43.252 459.505 42.9019C459.533 42.761 459.561 42.6223 459.588 42.4857C460.027 40.3106 460.355 38.6845 459.713 37.0908C459.155 37.1862 458.4 37.1494 457.712 36.8106C456.743 36.3339 455.995 35.3081 455.995 33.5C455.995 31.8788 456.663 30.0324 457.644 28.5933C457.94 28.1594 458.275 27.7476 458.641 27.3853C458.112 27.5644 457.572 27.7914 457.038 28.0501C455.51 28.7897 454.116 29.7434 453.307 30.3904L452.642 30.9228L452.502 30.0822C452.406 29.506 452.45 28.7137 452.553 27.9599C452.657 27.1963 452.83 26.4148 453.021 25.8419C453.164 25.4133 453.462 24.8877 453.818 24.3526C454.067 23.9784 454.354 23.584 454.659 23.1926C453.8 23.79 452.897 24.4579 452.007 25.1757C449.724 27.0175 447.573 29.1516 446.434 31.2394L445.504 30.9065C446.121 27.6686 449.075 20.566 456.108 15.3215C451.154 17.1571 443.137 22.0284 436.413 32.2743L435.495 33.6732V32C435.495 30.7996 435.648 28.8607 436.108 26.9102C436.31 26.0563 436.573 25.1842 436.917 24.3645C436.623 24.6802 436.315 25.0223 435.999 25.3891C433.275 28.5456 429.965 33.4635 428.988 39.0857L427.998 39.0552C427.913 38.2858 427.836 37.0603 427.883 35.8678C427.894 35.5745 427.914 35.2805 427.942 34.9938C427.465 35.6527 426.916 36.4642 426.36 37.3836C424.612 40.2783 422.861 44.1419 422.978 47.6471L426.232 48.8674C427.864 45.4617 432.932 39.3936 441.973 39.0005C444.849 38.8754 447.05 38.8123 448.754 38.8438C450.453 38.8753 451.693 39.0009 452.632 39.2692C453.592 39.5433 454.246 39.9689 454.756 40.5884C455.246 41.1837 455.584 41.9382 455.955 42.803L455.995 42.8974V43.0177C455.995 44.4118 455.995 45.5917 455.929 46.532C455.913 46.7501 455.894 46.9605 455.869 47.1619Z" fill="#000000"/>
  <path d="M459.996 37C461.996 39.3333 467.996 44.5 471.996 44.5C476.996 44.5 480.496 44 485.496 42C490.496 40 500.996 34.5 510.496 34C519.996 33.5 538.996 33.5 541.496 33C543.996 32.5 549.996 32 554.496 27.5C554.996 27.1667 557.996 26 556.996 29C556.045 31.8527 557.952 32.9746 560.412 31.0665C560.467 31.0234 560.526 30.9849 560.589 30.9535C567.601 27.4505 579.412 21.8894 582.996 19.5C587.496 16.5 598.996 9 603.496 5C607.996 1 611.996 0 613.996 0C615.996 0 620.996 1.5 618.996 6C618.996 7.5 620.646 6.42501 621.496 6C624.696 4.4 628.329 4 629.996 4C632.996 4 637.496 6.5 635.996 9.5C631.996 15.5 625.996 17.5 621.496 19.5C618.17 20.9784 603.996 25 595.996 29C594.582 29.7071 581.996 36.5 576.496 41C570.996 45.5 551.496 66.5 551.496 67.5C551.496 68.5 537.996 82.5 536.496 84.5C534.996 86.5 525.996 95.5 524.496 96C522.496 96.1667 518.196 96.4 516.996 96C518.996 95.5 523.496 94 525.496 92C527.996 89.5 532.496 85 533.996 83.5C537.996 79.5 541.496 69.5 544.996 62.5C550.455 51.5821 555.496 47 560.496 42.5C564.496 38.9 573.829 33.8333 578.496 31L604.496 17C606.077 16.244 608.866 14.9019 611.5 13.6327C612.546 13.1287 612.178 12.122 611.084 12.5112C603.932 15.0554 591.725 20.5686 576.819 32C584.496 23 602.996 12.5 605.496 10.5C609.11 7.60886 610.572 6.57266 611.145 5.90726C611.505 5.4888 611.044 4.9939 610.505 5.11667C608.8 5.50555 606.922 6.82806 603.996 8.5C600.496 10.5 591.496 16.5 584.496 21C577.496 25.5 558.996 37.5 557.496 38.5C556.496 39.5 556.496 38.5 553.496 44C552.496 45.6667 549.796 50.4 546.996 56C544.196 61.6 535.163 70.3333 530.996 74C527.829 76.6667 516.996 82 507.996 83C501 84 491.396 83.9422 484.996 81.5C477.996 78.5 473.296 74.2 470.496 69C472.663 71.1667 479.696 74.4 488.496 74C499.496 73.5 517.872 67.8518 530.996 59.5C536.496 56 544.996 47.5 546.996 36.5C546.996 35.5 546.388 34.6218 542.496 37C533.496 42.5 510.488 39.0205 508 39.2692C503.009 39.7683 497.5 43.1849 495.5 44.1849C495 44.1849 491.771 47.0459 487 48C481.23 49.1539 480 49.5 471.996 48.5C463.787 46.9608 459.996 43 459.496 42L459.996 37Z" fill="#000000"/>
  <path d="M516.51 95.5H523.51V102.228C523.51 102.406 523.558 102.581 523.648 102.735L528.125 110.345C528.352 110.732 528.296 111.221 527.986 111.546C523.11 116.673 513.367 127.901 509.51 136L509.01 144L501.51 149.5C501.402 150.366 501.392 151.965 501.837 153.417C502.099 154.269 501.487 155.5 500.596 155.5H498.231C497.8 155.5 497.453 155.157 497.081 154.939C496.748 154.744 496.231 154.779 495.51 155.5C494.01 157 491.01 155 491.01 151.5C489.843 151.5 487.51 151.1 487.51 149.5C487.51 147.5 487.01 144.5 492.01 139C497.61 137.4 500.01 136 500.51 135.5C505.677 130 515.31 117.8 516.51 113C516.512 112.998 516.513 112.997 516.515 112.995C516.476 112.621 516.138 111.128 514.01 109L507.51 102.5C507.01 102 505.91 100.9 505.51 98.5C508.005 97.8333 513.796 95.6 516.996 92C516.196 93.6 512.996 96.1667 511.496 97.5C513.829 101 518.496 108.2 518.496 109C518.896 110.6 518.496 112.667 517.996 113.5L513.496 121L508.496 128C506.663 130.333 502.451 135.627 500.996 136.5C498.658 137.903 495.299 139.452 492.965 140.328C495.4 142.746 501.51 141.5 501.51 141.5C501.51 141.5 507.894 132.4 510.885 127.9L521.996 110C517.207 106 515.505 100.333 514.496 98C514.505 97.1667 514.921 95.9 516.51 95.5Z" fill="#000000"/>
  <path fill-rule="evenodd" clip-rule="evenodd" d="M491.496 98.5C494.496 99 501.096 99.7 505.496 98.5C505.996 100.833 506.329 102.722 506.607 104.296C507.163 107.444 507.496 109.333 508.496 111C508.986 111.817 509.53 112.474 509.97 113.006C510.876 114.1 511.342 114.663 509.996 115C508.141 115.464 491.232 128.831 488.79 130.767C488.594 130.922 488.474 131.135 488.443 131.382C488.237 133.013 487.659 139.29 490.996 139C492.496 139 489.921 146.078 487.996 145.5C486.305 144.993 484.862 144.809 483.685 144.66C482.688 144.534 481.883 144.431 481.282 144.177C480.428 143.815 478.765 143.296 477.919 143.675C476.587 144.269 474.945 144.173 473.496 142C468.496 142.5 468.496 139.5 468.496 138C465.996 139 464.496 136 465.496 133.5C465.583 133.283 465.666 133.066 465.748 132.851C466.617 130.581 467.43 128.457 471.996 128C473.736 127.826 474.931 127.894 475.939 127.952C477.829 128.06 479.062 128.13 481.996 126.5C486.496 124 498.496 114.5 498.496 113C498.496 111.5 492.996 104.5 491.996 103.5C491.196 102.7 491.329 99.6667 491.496 98.5ZM498.818 104H498.945C499.288 104 499.607 104.176 499.79 104.466L505.02 112.746C505.291 113.176 505.197 113.741 504.801 114.059L482.496 132C480.675 133.366 475.454 133.986 472.723 131.367C472.288 130.951 472.473 130.261 473.049 130.086C474.501 129.645 476.169 129.593 477.753 129.544C479.359 129.494 480.878 129.447 481.996 129C483.882 128.246 498.096 116.355 500.985 113.93C501.299 113.666 501.411 113.247 501.271 112.862C500.804 111.583 499.631 108.568 497.932 105.563C497.544 104.876 498.029 104 498.818 104Z" fill="#000000"/>
  <path d="M542.496 146L507.496 144L500.496 150.5C501.329 151 503.201 152.5 506.996 152.5H526.996C526.996 152.5 532.496 156 535.496 162.5C538.496 169 548.496 185 559.496 190C568.296 194 583.663 195 589.996 195C595.496 195 605.996 196.4 619.996 204C609.996 195 596.829 192.333 589.996 191C575.496 189 575.496 191.5 562.996 185C544.196 175.224 545.996 162.5 538.496 153.5C555.496 152 566.996 160.5 570.496 162.5C573.996 164.5 577.496 170 582.996 173.5C588.376 176.924 591.364 176.998 589.62 174.192C589.542 174.066 589.43 173.962 589.307 173.88C587.061 172.393 582.645 167.205 570.496 157C560.748 148.811 547.996 146.167 542.496 146Z" fill="#000000"/>
</svg>
